#N canvas 92 83 1289 743 12;
#X obj 14 401 voce~, f 16;
#X floatatom 197 377 5 0 0 0 - - - 0;
#X obj 263 399 voce~, f 16;
#X floatatom 446 375 5 0 0 0 - - - 0;
#X obj 501 402 voce~, f 16;
#X floatatom 684 378 5 0 0 0 - - - 0;
#X obj 727 403 voce~, f 16;
#X floatatom 910 379 5 0 0 0 - - - 0;
#X obj 953 402 voce~, f 16;
#X floatatom 1136 378 5 0 0 0 - - - 0;
#X obj 500 285 phasor~ 82.5;
#X obj 726 286 phasor~ 68.75;
#X obj 952 285 phasor~ 89.375;
#N canvas 388 85 584 512 formant 0;
#X obj 198 211 bng 15 250 50 0 empty empty empty 17 7 0 10 #fcfcfc #000000 #000000;
#X msg 198 231 66 172 241;
#X obj -20 215 bng 15 250 50 0 empty empty empty 17 7 0 10 #fcfcfc #000000 #000000;
#X text -31 215 u;
#X obj 55 212 bng 15 250 50 0 empty empty empty 17 7 0 10 #fcfcfc #000000 #000000;
#X text 45 213 o;
#X msg 55 231 57 84 241;
#X obj 123 211 bng 15 250 50 0 empty empty empty 17 7 0 10 #fcfcfc #000000 #000000;
#X msg 123 231 73 109 244;
#X msg 271 231 27 229 301;
#X text 261 212 i;
#X msg -21 232 10 14 200;
#X obj -20 146 sel 1 2 3 4 5;
#X obj -20 123 + 1;
#X obj -20 99 urn 5;
#X text 187 210 e;
#X text 112 210 a;
#X obj 273 213 bng 15 250 50 0 empty empty empty 17 7 0 10 #fcfcfc #000000 #000000;
#X obj -20 75 metro 100;
#X obj -20 43 tgl 19 0 empty empty empty 0 -10 0 12 #fcfcfc #000000 #000000 0 1;
#X obj 108 111 bng 19 250 50 0 empty empty empty 0 -10 0 12 #fcfcfc #000000 #000000;
#X obj 130 111 bng 19 250 50 0 empty empty empty 0 -10 0 12 #fcfcfc #000000 #000000;
#X obj 152 111 bng 19 250 50 0 empty empty empty 0 -10 0 12 #fcfcfc #000000 #000000;
#X obj 174 111 bng 19 250 50 0 empty empty empty 0 -10 0 12 #fcfcfc #000000 #000000;
#X obj 196 111 bng 19 250 50 0 empty empty empty 0 -10 0 12 #fcfcfc #000000 #000000;
#X obj -20 287 unpack f f f;
#X obj -20 376 outlet;
#X obj 19 399 outlet;
#X obj 60 424 outlet;
#X obj -20 328 +;
#X floatatom 107 137 5 0 0 0 - - - 0;
#X obj 25 324 t b f;
#X obj 8 349 +;
#X floatatom 108 157 5 0 0 0 - - - 0;
#X obj 41 348 t b f;
#X obj 56 376 +;
#X obj 89 375 t b f;
#X floatatom 178 135 5 0 0 0 - - - 0;
#X obj 287 77 *~ 0.5;
#X obj 287 101 *~ 100;
#X obj 287 125 snapshot~;
#X obj 367 92 metro 50;
#X floatatom 287 149 5 0 0 0 - - - 0;
#X obj 287 53 +~ 1;
#X obj 287 29 osc~ 0.01;
#X obj 177 166 tgl 19 0 empty empty empty 0 -10 0 12 #fcfcfc #000000 #000000 0 1;
#X msg 279 274 0;
#X msg 368 17 0.5;
#X obj 42 -109 inlet;
#X obj 42 -85 moses 10;
#X obj 93 -62 moses 20;
#X obj 147 -38 moses 30;
#X obj 194 -9 moses 50;
#X connect 0 0 1 0;
#X connect 0 0 46 0;
#X connect 1 0 25 0;
#X connect 2 0 11 0;
#X connect 2 0 46 0;
#X connect 4 0 6 0;
#X connect 4 0 46 0;
#X connect 6 0 25 0;
#X connect 7 0 8 0;
#X connect 7 0 46 0;
#X connect 8 0 25 0;
#X connect 9 0 25 0;
#X connect 11 0 25 0;
#X connect 12 0 2 0;
#X connect 12 1 4 0;
#X connect 12 2 7 0;
#X connect 12 3 0 0;
#X connect 12 4 17 0;
#X connect 13 0 12 0;
#X connect 14 0 13 0;
#X connect 17 0 9 0;
#X connect 17 0 46 0;
#X connect 18 0 14 0;
#X connect 19 0 18 0;
#X connect 20 0 2 0;
#X connect 21 0 4 0;
#X connect 22 0 7 0;
#X connect 23 0 0 0;
#X connect 24 0 17 0;
#X connect 25 0 29 0;
#X connect 25 1 32 0;
#X connect 25 2 35 0;
#X connect 29 0 26 0;
#X connect 30 0 31 0;
#X connect 31 0 29 0;
#X connect 31 1 29 1;
#X connect 32 0 27 0;
#X connect 33 0 34 0;
#X connect 34 0 32 0;
#X connect 34 1 32 1;
#X connect 35 0 28 0;
#X connect 36 0 35 0;
#X connect 36 1 35 1;
#X connect 37 0 36 0;
#X connect 38 0 39 0;
#X connect 39 0 40 0;
#X connect 40 0 42 0;
#X connect 41 0 40 0;
#X connect 42 0 30 0;
#X connect 42 0 37 0;
#X connect 42 0 33 0;
#X connect 43 0 38 0;
#X connect 44 0 43 0;
#X connect 45 0 41 0;
#X connect 45 0 47 0;
#X connect 46 0 37 0;
#X connect 46 0 33 0;
#X connect 46 0 30 0;
#X connect 47 0 44 1;
#X connect 48 0 49 0;
#X connect 49 0 20 0;
#X connect 49 1 50 0;
#X connect 50 0 21 0;
#X connect 50 1 51 0;
#X connect 51 0 22 0;
#X connect 51 1 52 0;
#X connect 52 0 23 0;
#X connect 52 1 24 0;
#X coords 0 -1 1 1 120 90 1 100 100;
#X restore 307 305 pd formant control;
#N canvas 388 85 584 512 formant 0;
#X obj 198 211 bng 15 250 50 0 empty empty empty 17 7 0 10 #fcfcfc #000000 #000000;
#X msg 198 231 66 172 241;
#X obj -20 215 bng 15 250 50 0 empty empty empty 17 7 0 10 #fcfcfc #000000 #000000;
#X text -31 215 u;
#X obj 55 212 bng 15 250 50 0 empty empty empty 17 7 0 10 #fcfcfc #000000 #000000;
#X text 45 213 o;
#X msg 55 231 57 84 241;
#X obj 123 211 bng 15 250 50 0 empty empty empty 17 7 0 10 #fcfcfc #000000 #000000;
#X msg 123 231 73 109 244;
#X msg 271 231 27 229 301;
#X text 261 212 i;
#X msg -21 232 10 14 200;
#X obj -20 146 sel 1 2 3 4 5;
#X obj -20 123 + 1;
#X obj -20 99 urn 5;
#X text 187 210 e;
#X text 112 210 a;
#X obj 273 213 bng 15 250 50 0 empty empty empty 17 7 0 10 #fcfcfc #000000 #000000;
#X obj -20 75 metro 100;
#X obj -20 43 tgl 19 0 empty empty empty 0 -10 0 12 #fcfcfc #000000 #000000 0 1;
#X obj 108 111 bng 19 250 50 0 empty empty empty 0 -10 0 12 #fcfcfc #000000 #000000;
#X obj 130 111 bng 19 250 50 0 empty empty empty 0 -10 0 12 #fcfcfc #000000 #000000;
#X obj 152 111 bng 19 250 50 0 empty empty empty 0 -10 0 12 #fcfcfc #000000 #000000;
#X obj 174 111 bng 19 250 50 0 empty empty empty 0 -10 0 12 #fcfcfc #000000 #000000;
#X obj 196 111 bng 19 250 50 0 empty empty empty 0 -10 0 12 #fcfcfc #000000 #000000;
#X obj -20 287 unpack f f f;
#X obj -20 376 outlet;
#X obj 19 399 outlet;
#X obj 60 424 outlet;
#X obj -20 328 +;
#X floatatom 107 137 5 0 0 0 - - - 0;
#X obj 25 324 t b f;
#X obj 8 349 +;
#X floatatom 108 157 5 0 0 0 - - - 0;
#X obj 41 348 t b f;
#X obj 56 376 +;
#X obj 89 375 t b f;
#X floatatom 178 135 5 0 0 0 - - - 0;
#X obj 287 77 *~ 0.5;
#X obj 287 101 *~ 100;
#X obj 287 125 snapshot~;
#X obj 367 92 metro 50;
#X floatatom 287 149 5 0 0 0 - - - 0;
#X obj 287 53 +~ 1;
#X obj 287 29 osc~ 0.01;
#X obj 177 166 tgl 19 0 empty empty empty 0 -10 0 12 #fcfcfc #000000 #000000 0 1;
#X msg 279 274 0;
#X msg 368 17 0.5;
#X obj 42 -109 inlet;
#X obj 42 -85 moses 10;
#X obj 93 -62 moses 20;
#X obj 147 -38 moses 30;
#X obj 194 -9 moses 50;
#X connect 0 0 1 0;
#X connect 0 0 46 0;
#X connect 1 0 25 0;
#X connect 2 0 11 0;
#X connect 2 0 46 0;
#X connect 4 0 6 0;
#X connect 4 0 46 0;
#X connect 6 0 25 0;
#X connect 7 0 8 0;
#X connect 7 0 46 0;
#X connect 8 0 25 0;
#X connect 9 0 25 0;
#X connect 11 0 25 0;
#X connect 12 0 2 0;
#X connect 12 1 4 0;
#X connect 12 2 7 0;
#X connect 12 3 0 0;
#X connect 12 4 17 0;
#X connect 13 0 12 0;
#X connect 14 0 13 0;
#X connect 17 0 9 0;
#X connect 17 0 46 0;
#X connect 18 0 14 0;
#X connect 19 0 18 0;
#X connect 20 0 2 0;
#X connect 21 0 4 0;
#X connect 22 0 7 0;
#X connect 23 0 0 0;
#X connect 24 0 17 0;
#X connect 25 0 29 0;
#X connect 25 1 32 0;
#X connect 25 2 35 0;
#X connect 29 0 26 0;
#X connect 30 0 31 0;
#X connect 31 0 29 0;
#X connect 31 1 29 1;
#X connect 32 0 27 0;
#X connect 33 0 34 0;
#X connect 34 0 32 0;
#X connect 34 1 32 1;
#X connect 35 0 28 0;
#X connect 36 0 35 0;
#X connect 36 1 35 1;
#X connect 37 0 36 0;
#X connect 38 0 39 0;
#X connect 39 0 40 0;
#X connect 40 0 42 0;
#X connect 41 0 40 0;
#X connect 42 0 30 0;
#X connect 42 0 37 0;
#X connect 42 0 33 0;
#X connect 43 0 38 0;
#X connect 44 0 43 0;
#X connect 45 0 41 0;
#X connect 45 0 47 0;
#X connect 46 0 37 0;
#X connect 46 0 33 0;
#X connect 46 0 30 0;
#X connect 47 0 44 1;
#X connect 48 0 49 0;
#X connect 49 0 20 0;
#X connect 49 1 50 0;
#X connect 50 0 21 0;
#X connect 50 1 51 0;
#X connect 51 0 22 0;
#X connect 51 1 52 0;
#X connect 52 0 23 0;
#X connect 52 1 24 0;
#X coords 0 -1 1 1 120 90 1 100 100;
#X restore 542 306 pd formant control;
#N canvas 388 85 584 512 formant 0;
#X obj 198 211 bng 15 250 50 0 empty empty empty 17 7 0 10 #fcfcfc #000000 #000000;
#X msg 198 231 66 172 241;
#X obj -20 215 bng 15 250 50 0 empty empty empty 17 7 0 10 #fcfcfc #000000 #000000;
#X text -31 215 u;
#X obj 55 212 bng 15 250 50 0 empty empty empty 17 7 0 10 #fcfcfc #000000 #000000;
#X text 45 213 o;
#X msg 55 231 57 84 241;
#X obj 123 211 bng 15 250 50 0 empty empty empty 17 7 0 10 #fcfcfc #000000 #000000;
#X msg 123 231 73 109 244;
#X msg 271 231 27 229 301;
#X text 261 212 i;
#X msg -21 232 10 14 200;
#X obj -20 146 sel 1 2 3 4 5;
#X obj -20 123 + 1;
#X obj -20 99 urn 5;
#X text 187 210 e;
#X text 112 210 a;
#X obj 273 213 bng 15 250 50 0 empty empty empty 17 7 0 10 #fcfcfc #000000 #000000;
#X obj -20 75 metro 100;
#X obj -20 43 tgl 19 0 empty empty empty 0 -10 0 12 #fcfcfc #000000 #000000 0 1;
#X obj 108 111 bng 19 250 50 0 empty empty empty 0 -10 0 12 #fcfcfc #000000 #000000;
#X obj 130 111 bng 19 250 50 0 empty empty empty 0 -10 0 12 #fcfcfc #000000 #000000;
#X obj 152 111 bng 19 250 50 0 empty empty empty 0 -10 0 12 #fcfcfc #000000 #000000;
#X obj 174 111 bng 19 250 50 0 empty empty empty 0 -10 0 12 #fcfcfc #000000 #000000;
#X obj 196 111 bng 19 250 50 0 empty empty empty 0 -10 0 12 #fcfcfc #000000 #000000;
#X obj -20 287 unpack f f f;
#X obj -20 376 outlet;
#X obj 19 399 outlet;
#X obj 60 424 outlet;
#X obj -20 328 +;
#X floatatom 107 137 5 0 0 0 - - - 0;
#X obj 25 324 t b f;
#X obj 8 349 +;
#X floatatom 108 157 5 0 0 0 - - - 0;
#X obj 41 348 t b f;
#X obj 56 376 +;
#X obj 89 375 t b f;
#X floatatom 178 135 5 0 0 0 - - - 0;
#X obj 287 77 *~ 0.5;
#X obj 287 101 *~ 100;
#X obj 287 125 snapshot~;
#X obj 367 92 metro 50;
#X floatatom 287 149 5 0 0 0 - - - 0;
#X obj 287 53 +~ 1;
#X obj 287 29 osc~ 0.01;
#X obj 177 166 tgl 19 0 empty empty empty 0 -10 0 12 #fcfcfc #000000 #000000 0 1;
#X msg 279 274 0;
#X msg 368 17 0.5;
#X obj 42 -109 inlet;
#X obj 42 -85 moses 10;
#X obj 93 -62 moses 20;
#X obj 147 -38 moses 30;
#X obj 194 -9 moses 50;
#X connect 0 0 1 0;
#X connect 0 0 46 0;
#X connect 1 0 25 0;
#X connect 2 0 11 0;
#X connect 2 0 46 0;
#X connect 4 0 6 0;
#X connect 4 0 46 0;
#X connect 6 0 25 0;
#X connect 7 0 8 0;
#X connect 7 0 46 0;
#X connect 8 0 25 0;
#X connect 9 0 25 0;
#X connect 11 0 25 0;
#X connect 12 0 2 0;
#X connect 12 1 4 0;
#X connect 12 2 7 0;
#X connect 12 3 0 0;
#X connect 12 4 17 0;
#X connect 13 0 12 0;
#X connect 14 0 13 0;
#X connect 17 0 9 0;
#X connect 17 0 46 0;
#X connect 18 0 14 0;
#X connect 19 0 18 0;
#X connect 20 0 2 0;
#X connect 21 0 4 0;
#X connect 22 0 7 0;
#X connect 23 0 0 0;
#X connect 24 0 17 0;
#X connect 25 0 29 0;
#X connect 25 1 32 0;
#X connect 25 2 35 0;
#X connect 29 0 26 0;
#X connect 30 0 31 0;
#X connect 31 0 29 0;
#X connect 31 1 29 1;
#X connect 32 0 27 0;
#X connect 33 0 34 0;
#X connect 34 0 32 0;
#X connect 34 1 32 1;
#X connect 35 0 28 0;
#X connect 36 0 35 0;
#X connect 36 1 35 1;
#X connect 37 0 36 0;
#X connect 38 0 39 0;
#X connect 39 0 40 0;
#X connect 40 0 42 0;
#X connect 41 0 40 0;
#X connect 42 0 30 0;
#X connect 42 0 37 0;
#X connect 42 0 33 0;
#X connect 43 0 38 0;
#X connect 44 0 43 0;
#X connect 45 0 41 0;
#X connect 45 0 47 0;
#X connect 46 0 37 0;
#X connect 46 0 33 0;
#X connect 46 0 30 0;
#X connect 47 0 44 1;
#X connect 48 0 49 0;
#X connect 49 0 20 0;
#X connect 49 1 50 0;
#X connect 50 0 21 0;
#X connect 50 1 51 0;
#X connect 51 0 22 0;
#X connect 51 1 52 0;
#X connect 52 0 23 0;
#X connect 52 1 24 0;
#X coords 0 -1 1 1 120 90 1 100 100;
#X restore 762 307 pd formant control;
#N canvas 388 85 584 512 formant 0;
#X obj 198 211 bng 15 250 50 0 empty empty empty 17 7 0 10 #fcfcfc #000000 #000000;
#X msg 198 231 66 172 241;
#X obj -20 215 bng 15 250 50 0 empty empty empty 17 7 0 10 #fcfcfc #000000 #000000;
#X text -31 215 u;
#X obj 55 212 bng 15 250 50 0 empty empty empty 17 7 0 10 #fcfcfc #000000 #000000;
#X text 45 213 o;
#X msg 55 231 57 84 241;
#X obj 123 211 bng 15 250 50 0 empty empty empty 17 7 0 10 #fcfcfc #000000 #000000;
#X msg 123 231 73 109 244;
#X msg 271 231 27 229 301;
#X text 261 212 i;
#X msg -21 232 10 14 200;
#X obj -20 146 sel 1 2 3 4 5;
#X obj -20 123 + 1;
#X obj -20 99 urn 5;
#X text 187 210 e;
#X text 112 210 a;
#X obj 273 213 bng 15 250 50 0 empty empty empty 17 7 0 10 #fcfcfc #000000 #000000;
#X obj -20 75 metro 100;
#X obj -20 43 tgl 19 0 empty empty empty 0 -10 0 12 #fcfcfc #000000 #000000 0 1;
#X obj 108 111 bng 19 250 50 0 empty empty empty 0 -10 0 12 #fcfcfc #000000 #000000;
#X obj 130 111 bng 19 250 50 0 empty empty empty 0 -10 0 12 #fcfcfc #000000 #000000;
#X obj 152 111 bng 19 250 50 0 empty empty empty 0 -10 0 12 #fcfcfc #000000 #000000;
#X obj 174 111 bng 19 250 50 0 empty empty empty 0 -10 0 12 #fcfcfc #000000 #000000;
#X obj 196 111 bng 19 250 50 0 empty empty empty 0 -10 0 12 #fcfcfc #000000 #000000;
#X obj -20 287 unpack f f f;
#X obj -20 376 outlet;
#X obj 19 399 outlet;
#X obj 60 424 outlet;
#X obj -20 328 +;
#X floatatom 107 137 5 0 0 0 - - - 0;
#X obj 25 324 t b f;
#X obj 8 349 +;
#X floatatom 108 157 5 0 0 0 - - - 0;
#X obj 41 348 t b f;
#X obj 56 376 +;
#X obj 89 375 t b f;
#X floatatom 178 135 5 0 0 0 - - - 0;
#X obj 287 77 *~ 0.5;
#X obj 287 101 *~ 100;
#X obj 287 125 snapshot~;
#X obj 367 92 metro 50;
#X floatatom 287 149 5 0 0 0 - - - 0;
#X obj 287 53 +~ 1;
#X obj 287 29 osc~ 0.01;
#X obj 177 166 tgl 19 0 empty empty empty 0 -10 0 12 #fcfcfc #000000 #000000 0 1;
#X msg 279 274 0;
#X msg 368 17 0.5;
#X obj 42 -109 inlet;
#X obj 42 -85 moses 10;
#X obj 93 -62 moses 20;
#X obj 147 -38 moses 30;
#X obj 194 -9 moses 50;
#X connect 0 0 1 0;
#X connect 0 0 46 0;
#X connect 1 0 25 0;
#X connect 2 0 11 0;
#X connect 2 0 46 0;
#X connect 4 0 6 0;
#X connect 4 0 46 0;
#X connect 6 0 25 0;
#X connect 7 0 8 0;
#X connect 7 0 46 0;
#X connect 8 0 25 0;
#X connect 9 0 25 0;
#X connect 11 0 25 0;
#X connect 12 0 2 0;
#X connect 12 1 4 0;
#X connect 12 2 7 0;
#X connect 12 3 0 0;
#X connect 12 4 17 0;
#X connect 13 0 12 0;
#X connect 14 0 13 0;
#X connect 17 0 9 0;
#X connect 17 0 46 0;
#X connect 18 0 14 0;
#X connect 19 0 18 0;
#X connect 20 0 2 0;
#X connect 21 0 4 0;
#X connect 22 0 7 0;
#X connect 23 0 0 0;
#X connect 24 0 17 0;
#X connect 25 0 29 0;
#X connect 25 1 32 0;
#X connect 25 2 35 0;
#X connect 29 0 26 0;
#X connect 30 0 31 0;
#X connect 31 0 29 0;
#X connect 31 1 29 1;
#X connect 32 0 27 0;
#X connect 33 0 34 0;
#X connect 34 0 32 0;
#X connect 34 1 32 1;
#X connect 35 0 28 0;
#X connect 36 0 35 0;
#X connect 36 1 35 1;
#X connect 37 0 36 0;
#X connect 38 0 39 0;
#X connect 39 0 40 0;
#X connect 40 0 42 0;
#X connect 41 0 40 0;
#X connect 42 0 30 0;
#X connect 42 0 37 0;
#X connect 42 0 33 0;
#X connect 43 0 38 0;
#X connect 44 0 43 0;
#X connect 45 0 41 0;
#X connect 45 0 47 0;
#X connect 46 0 37 0;
#X connect 46 0 33 0;
#X connect 46 0 30 0;
#X connect 47 0 44 1;
#X connect 48 0 49 0;
#X connect 49 0 20 0;
#X connect 49 1 50 0;
#X connect 50 0 21 0;
#X connect 50 1 51 0;
#X connect 51 0 22 0;
#X connect 51 1 52 0;
#X connect 52 0 23 0;
#X connect 52 1 24 0;
#X coords 0 -1 1 1 120 90 1 100 100;
#X restore 991 307 pd formant control;
#X floatatom 78 216 5 0 0 0 - - - 0;
#X obj 101 154 mtof;
#X floatatom 100 128 5 0 0 0 - - - 0;
#X floatatom 101 178 5 0 0 0 - - - 0;
#X floatatom 255 226 5 0 0 0 - - - 0;
#X obj 278 164 mtof;
#X floatatom 277 138 5 0 0 0 - - - 0;
#X floatatom 278 188 8 0 0 0 - - - 0;
#X obj 494 181 mtof;
#X floatatom 493 155 5 0 0 0 - - - 0;
#X floatatom 494 205 8 0 0 0 - - - 0;
#X obj 752 190 mtof;
#X floatatom 751 164 5 0 0 0 - - - 0;
#X floatatom 752 214 8 0 0 0 - - - 0;
#X obj 213 680 throw~ this, f 33;
#N canvas 388 85 584 512 formant 0;
#X obj 198 211 bng 15 250 50 0 empty empty empty 17 7 0 10 #fcfcfc #000000 #000000;
#X msg 198 231 66 172 241;
#X obj -20 215 bng 15 250 50 0 empty empty empty 17 7 0 10 #fcfcfc #000000 #000000;
#X text -31 215 u;
#X obj 55 212 bng 15 250 50 0 empty empty empty 17 7 0 10 #fcfcfc #000000 #000000;
#X text 45 213 o;
#X msg 55 231 57 84 241;
#X obj 123 211 bng 15 250 50 0 empty empty empty 17 7 0 10 #fcfcfc #000000 #000000;
#X msg 123 231 73 109 244;
#X msg 271 231 27 229 301;
#X text 261 212 i;
#X msg -21 232 10 14 200;
#X obj -20 146 sel 1 2 3 4 5;
#X obj -20 123 + 1;
#X obj -20 99 urn 5;
#X text 187 210 e;
#X text 112 210 a;
#X obj 273 213 bng 15 250 50 0 empty empty empty 17 7 0 10 #fcfcfc #000000 #000000;
#X obj -20 75 metro 100;
#X obj -20 43 tgl 19 0 empty empty empty 0 -10 0 12 #fcfcfc #000000 #000000 0 1;
#X obj 108 111 bng 19 250 50 0 empty empty empty 0 -10 0 12 #fcfcfc #000000 #000000;
#X obj 130 111 bng 19 250 50 0 empty empty empty 0 -10 0 12 #fcfcfc #000000 #000000;
#X obj 152 111 bng 19 250 50 0 empty empty empty 0 -10 0 12 #fcfcfc #000000 #000000;
#X obj 174 111 bng 19 250 50 0 empty empty empty 0 -10 0 12 #fcfcfc #000000 #000000;
#X obj 196 111 bng 19 250 50 0 empty empty empty 0 -10 0 12 #fcfcfc #000000 #000000;
#X obj -20 287 unpack f f f;
#X obj -20 376 outlet;
#X obj 19 399 outlet;
#X obj 60 424 outlet;
#X obj -20 328 +;
#X floatatom 107 137 5 0 0 0 - - - 0;
#X obj 25 324 t b f;
#X obj 8 349 +;
#X floatatom 108 157 5 0 0 0 - - - 0;
#X obj 41 348 t b f;
#X obj 56 376 +;
#X obj 89 375 t b f;
#X floatatom 178 135 5 0 0 0 - - - 0;
#X obj 287 77 *~ 0.5;
#X obj 287 101 *~ 100;
#X obj 287 125 snapshot~;
#X obj 367 92 metro 50;
#X floatatom 287 149 5 0 0 0 - - - 0;
#X obj 287 53 +~ 1;
#X obj 287 29 osc~ 0.01;
#X obj 177 166 tgl 19 0 empty empty empty 0 -10 0 12 #fcfcfc #000000 #000000 0 1;
#X msg 279 274 0;
#X msg 368 17 0.5;
#X obj 42 -109 inlet;
#X obj 42 -85 moses 10;
#X obj 93 -62 moses 20;
#X obj 147 -38 moses 30;
#X obj 194 -9 moses 50;
#X connect 0 0 1 0;
#X connect 0 0 46 0;
#X connect 1 0 25 0;
#X connect 2 0 11 0;
#X connect 2 0 46 0;
#X connect 4 0 6 0;
#X connect 4 0 46 0;
#X connect 6 0 25 0;
#X connect 7 0 8 0;
#X connect 7 0 46 0;
#X connect 8 0 25 0;
#X connect 9 0 25 0;
#X connect 11 0 25 0;
#X connect 12 0 2 0;
#X connect 12 1 4 0;
#X connect 12 2 7 0;
#X connect 12 3 0 0;
#X connect 12 4 17 0;
#X connect 13 0 12 0;
#X connect 14 0 13 0;
#X connect 17 0 9 0;
#X connect 17 0 46 0;
#X connect 18 0 14 0;
#X connect 19 0 18 0;
#X connect 20 0 2 0;
#X connect 21 0 4 0;
#X connect 22 0 7 0;
#X connect 23 0 0 0;
#X connect 24 0 17 0;
#X connect 25 0 29 0;
#X connect 25 1 32 0;
#X connect 25 2 35 0;
#X connect 29 0 26 0;
#X connect 30 0 31 0;
#X connect 31 0 29 0;
#X connect 31 1 29 1;
#X connect 32 0 27 0;
#X connect 33 0 34 0;
#X connect 34 0 32 0;
#X connect 34 1 32 1;
#X connect 35 0 28 0;
#X connect 36 0 35 0;
#X connect 36 1 35 1;
#X connect 37 0 36 0;
#X connect 38 0 39 0;
#X connect 39 0 40 0;
#X connect 40 0 42 0;
#X connect 41 0 40 0;
#X connect 42 0 30 0;
#X connect 42 0 37 0;
#X connect 42 0 33 0;
#X connect 43 0 38 0;
#X connect 44 0 43 0;
#X connect 45 0 41 0;
#X connect 45 0 47 0;
#X connect 46 0 37 0;
#X connect 46 0 33 0;
#X connect 46 0 30 0;
#X connect 47 0 44 1;
#X connect 48 0 49 0;
#X connect 49 0 20 0;
#X connect 49 1 50 0;
#X connect 50 0 21 0;
#X connect 50 1 51 0;
#X connect 51 0 22 0;
#X connect 51 1 52 0;
#X connect 52 0 23 0;
#X connect 52 1 24 0;
#X coords 0 -1 1 1 120 90 1 100 100;
#X restore 58 302 pd formant control;
#X obj 262 282 phasor~ 110;
#X obj 13 256 phasor~ 55;
#X connect 0 0 31 0;
#X connect 0 1 31 0;
#X connect 1 0 0 4;
#X connect 2 0 31 0;
#X connect 2 1 31 0;
#X connect 3 0 2 4;
#X connect 4 0 31 0;
#X connect 4 1 31 0;
#X connect 5 0 4 4;
#X connect 6 0 31 0;
#X connect 6 1 31 0;
#X connect 7 0 6 4;
#X connect 8 0 31 0;
#X connect 8 1 31 0;
#X connect 9 0 8 4;
#X connect 10 0 4 0;
#X connect 11 0 6 0;
#X connect 12 0 8 0;
#X connect 13 0 2 1;
#X connect 13 1 2 2;
#X connect 13 2 2 3;
#X connect 14 0 4 1;
#X connect 14 1 4 2;
#X connect 14 2 4 3;
#X connect 15 0 6 1;
#X connect 15 1 6 2;
#X connect 15 2 6 3;
#X connect 16 0 8 1;
#X connect 16 1 8 2;
#X connect 16 2 8 3;
#X connect 17 0 34 0;
#X connect 18 0 20 0;
#X connect 19 0 18 0;
#X connect 20 0 17 0;
#X connect 21 0 33 0;
#X connect 22 0 24 0;
#X connect 23 0 22 0;
#X connect 24 0 21 0;
#X connect 25 0 27 0;
#X connect 26 0 25 0;
#X connect 27 0 10 0;
#X connect 28 0 30 0;
#X connect 29 0 28 0;
#X connect 30 0 11 0;
#X connect 32 0 0 1;
#X connect 32 1 0 2;
#X connect 32 2 0 3;
#X connect 33 0 2 0;
#X connect 34 0 0 0;
