#N canvas 0 26 934 726 12;
#X obj 136 -251 vsl 19 162 0 1 0 0 empty empty empty 0 -9 0 12 #fcfcfc #000000 #000000 0 1;
#X obj 316 -246 vsl 19 162 0 1 0 0 empty empty empty 0 -9 0 12 #fcfcfc #000000 #000000 0 1;
#X obj 135 -39 vsl 19 162 0 1 0 0 empty empty empty 0 -9 0 12 #fcfcfc #000000 #000000 0 1;
#X obj 157 -39 vsl 19 162 0 1 0 0 empty empty empty 0 -9 0 12 #fcfcfc #000000 #000000 0 1;
#X obj 178 -39 vsl 19 162 0 1 0 0 empty empty empty 0 -9 0 12 #fcfcfc #000000 #000000 0 1;
#X obj 199 -39 vsl 19 162 0 1 0 0 empty empty empty 0 -9 0 12 #fcfcfc #000000 #000000 0 1;
#X obj 220 -39 vsl 19 162 0 1 0 0 empty empty empty 0 -9 0 12 #fcfcfc #000000 #000000 0 1;
#X obj 241 -39 vsl 19 162 0 1 0 0 empty empty empty 0 -9 0 12 #fcfcfc #000000 #000000 0 1;
#X obj 262 -39 vsl 19 162 0 1 0 0 empty empty empty 0 -9 0 12 #fcfcfc #000000 #000000 0 1;
#X obj 284 -39 vsl 19 162 0 1 0 0 empty empty empty 0 -9 0 12 #fcfcfc #000000 #000000 0 1;
#X obj 306 -39 vsl 19 162 0 1 0 0 empty empty empty 0 -9 0 12 #fcfcfc #000000 #000000 0 1;
#X obj 327 -39 vsl 19 162 0 1 0 0 empty empty empty 0 -9 0 12 #fcfcfc #000000 #000000 0 1;
#X obj 135 131 * 200;
#X obj 157 160 * 200;
#X obj 179 181 * 200;
#X obj 201 210 * 200;
#X obj 223 233 * 200;
#X obj 245 258 * 200;
#X obj 286 283 * 200;
#X obj 306 250 * 200;
#X obj 137 -76 mlp, f 26;
#X obj 646 83 vsl 19 162 0 1 0 0 empty empty empty 0 -9 0 12 #fcfcfc #000000 #000000 0 1;
#X obj 674 83 vsl 19 162 0 1 0 0 empty empty empty 0 -9 0 12 #fcfcfc #000000 #000000 0 1;
#X obj 664 373 vsl 19 162 0 1 0 0 empty empty empty 0 -9 0 12 #fcfcfc #000000 #000000 0 1;
#X obj 686 373 vsl 19 162 0 1 0 0 empty empty empty 0 -9 0 12 #fcfcfc #000000 #000000 0 1;
#X obj 707 373 vsl 19 162 0 1 0 0 empty empty empty 0 -9 0 12 #fcfcfc #000000 #000000 0 1;
#X obj 728 373 vsl 19 162 0 1 0 0 empty empty empty 0 -9 0 12 #fcfcfc #000000 #000000 0 1;
#X obj 749 373 vsl 19 162 0 1 0 0 empty empty empty 0 -9 0 12 #fcfcfc #000000 #000000 0 1;
#X obj 770 373 vsl 19 162 0 1 0 0 empty empty empty 0 -9 0 12 #fcfcfc #000000 #000000 0 1;
#X obj 791 373 vsl 19 162 0 1 0 0 empty empty empty 0 -9 0 12 #fcfcfc #000000 #000000 0 1;
#X obj 813 373 vsl 19 162 0 1 0 0 empty empty empty 0 -9 0 12 #fcfcfc #000000 #000000 0 1;
#X obj 835 373 vsl 19 162 0 1 0 0 empty empty empty 0 -9 0 12 #fcfcfc #000000 #000000 0 1;
#X obj 856 373 vsl 19 162 0 1 0 0 empty empty empty 0 -9 0 12 #fcfcfc #000000 #000000 0 1;
#X obj 666 336 MLPlatent, f 26;
#X obj 300 994 dac~ 1 2 3;
#N canvas 388 85 584 512 formant 0;
#X obj 198 211 bng 15 250 50 0 empty empty empty 17 7 0 10 #fcfcfc #000000 #000000;
#X msg 198 231 66 172 241;
#X obj -20 215 bng 15 250 50 0 empty empty empty 17 7 0 10 #fcfcfc #000000 #000000;
#X text -31 215 u;
#X obj 55 212 bng 15 250 50 0 empty empty empty 17 7 0 10 #fcfcfc #000000 #000000;
#X text 45 213 o;
#X msg 55 231 57 84 241;
#X obj 123 211 bng 15 250 50 0 empty empty empty 17 7 0 10 #fcfcfc #000000 #000000;
#X msg 123 231 73 109 244;
#X msg 271 231 27 229 301;
#X text 261 212 i;
#X msg -21 232 10 14 200;
#X obj -20 146 sel 1 2 3 4 5;
#X text 187 210 e;
#X text 112 210 a;
#X obj 273 213 bng 15 250 50 0 empty empty empty 17 7 0 10 #fcfcfc #000000 #000000;
#X obj 108 111 bng 19 250 50 0 empty empty empty 0 -10 0 12 #fcfcfc #000000 #000000;
#X obj 130 111 bng 19 250 50 0 empty empty empty 0 -10 0 12 #fcfcfc #000000 #000000;
#X obj 152 111 bng 19 250 50 0 empty empty empty 0 -10 0 12 #fcfcfc #000000 #000000;
#X obj 174 111 bng 19 250 50 0 empty empty empty 0 -10 0 12 #fcfcfc #000000 #000000;
#X obj 196 111 bng 19 250 50 0 empty empty empty 0 -10 0 12 #fcfcfc #000000 #000000;
#X obj -20 287 unpack f f f;
#X obj -20 376 outlet;
#X obj 19 399 outlet;
#X obj 60 424 outlet;
#X obj -20 328 +;
#X floatatom 107 137 5 0 0 0 - - - 0;
#X obj 25 324 t b f;
#X obj 8 349 +;
#X floatatom 108 157 5 0 0 0 - - - 0;
#X obj 41 348 t b f;
#X obj 56 376 +;
#X obj 89 375 t b f;
#X floatatom 178 135 5 0 0 0 - - - 0;
#X obj 287 77 *~ 0.5;
#X obj 287 101 *~ 100;
#X obj 287 125 snapshot~;
#X obj 367 92 metro 50;
#X floatatom 287 149 5 0 0 0 - - - 0;
#X obj 287 53 +~ 1;
#X obj 287 29 osc~ 0.01;
#X obj 177 166 tgl 19 0 empty empty empty 0 -10 0 12 #fcfcfc #000000 #000000 0 1;
#X msg 279 274 0;
#X msg 368 17 0.5;
#X obj -17 112 inlet;
#X connect 0 0 1 0;
#X connect 0 0 42 0;
#X connect 1 0 21 0;
#X connect 2 0 11 0;
#X connect 2 0 42 0;
#X connect 4 0 6 0;
#X connect 4 0 42 0;
#X connect 6 0 21 0;
#X connect 7 0 8 0;
#X connect 7 0 42 0;
#X connect 8 0 21 0;
#X connect 9 0 21 0;
#X connect 11 0 21 0;
#X connect 12 0 2 0;
#X connect 12 1 4 0;
#X connect 12 2 7 0;
#X connect 12 3 0 0;
#X connect 12 4 15 0;
#X connect 15 0 9 0;
#X connect 15 0 42 0;
#X connect 16 0 2 0;
#X connect 17 0 4 0;
#X connect 18 0 7 0;
#X connect 19 0 0 0;
#X connect 20 0 15 0;
#X connect 21 0 25 0;
#X connect 21 1 28 0;
#X connect 21 2 31 0;
#X connect 25 0 22 0;
#X connect 26 0 27 0;
#X connect 27 0 25 0;
#X connect 27 1 25 1;
#X connect 28 0 23 0;
#X connect 29 0 30 0;
#X connect 30 0 28 0;
#X connect 30 1 28 1;
#X connect 31 0 24 0;
#X connect 32 0 31 0;
#X connect 32 1 31 1;
#X connect 33 0 32 0;
#X connect 34 0 35 0;
#X connect 35 0 36 0;
#X connect 36 0 38 0;
#X connect 37 0 36 0;
#X connect 38 0 26 0;
#X connect 38 0 33 0;
#X connect 38 0 29 0;
#X connect 39 0 34 0;
#X connect 40 0 39 0;
#X connect 41 0 37 0;
#X connect 41 0 43 0;
#X connect 42 0 33 0;
#X connect 42 0 29 0;
#X connect 42 0 26 0;
#X connect 43 0 40 1;
#X connect 44 0 12 0;
#X coords 0 -1 1 1 120 90 1 100 100;
#X restore 379 267 pd formant control;
#X obj 275 406 synthesis_voce~, f 16;
#X obj 386 209 + 1;
#X obj 386 185 urn 5;
#X obj 386 129 tgl 19 0 empty empty empty 0 -10 0 12 #fcfcfc #000000 #000000 0 1;
#X obj 60 462 catch~ this;
#X obj 471 141 r metro;
#X obj 674 812 timbretransferVAE, f 26;
#X obj 56 223 phasor~ 110;
#X obj 282 722 *~ 0.3;
#X obj 714 926 space_oddity;
#X floatatom 800 891 5 0 0 0 - - - 0;
#X obj 845 746 tgl 19 0 empty empty empty 0 -10 0 12 #fcfcfc #000000 #000000 0 1;
#X obj 60 523 *~ 0.3;
#X obj 386 161 metro 75;
#X obj 674 856 *~ 0.8;
#X obj 602 -95 drones;
#X connect 0 0 20 0;
#X connect 1 0 20 1;
#X connect 2 0 12 0;
#X connect 3 0 13 0;
#X connect 4 0 14 0;
#X connect 5 0 15 0;
#X connect 6 0 16 0;
#X connect 7 0 17 0;
#X connect 8 0 18 0;
#X connect 9 0 19 0;
#X connect 10 0 21 0;
#X connect 11 0 22 0;
#X connect 12 0 36 4;
#X connect 13 0 36 5;
#X connect 14 0 36 6;
#X connect 15 0 36 7;
#X connect 16 0 36 8;
#X connect 17 0 36 9;
#X connect 18 0 36 10;
#X connect 19 0 36 11;
#X connect 20 0 2 0;
#X connect 20 1 3 0;
#X connect 20 2 4 0;
#X connect 20 3 5 0;
#X connect 20 4 6 0;
#X connect 20 5 7 0;
#X connect 20 6 8 0;
#X connect 20 7 9 0;
#X connect 20 8 10 0;
#X connect 20 9 11 0;
#X connect 21 0 33 0;
#X connect 22 0 33 1;
#X connect 23 0 42 1;
#X connect 24 0 42 2;
#X connect 25 0 42 3;
#X connect 26 0 42 4;
#X connect 27 0 42 5;
#X connect 28 0 42 6;
#X connect 29 0 42 7;
#X connect 30 0 42 8;
#X connect 31 0 42 9;
#X connect 32 0 42 10;
#X connect 33 0 23 0;
#X connect 33 1 24 0;
#X connect 33 2 25 0;
#X connect 33 3 26 0;
#X connect 33 4 27 0;
#X connect 33 5 28 0;
#X connect 33 6 29 0;
#X connect 33 7 30 0;
#X connect 33 8 31 0;
#X connect 33 9 32 0;
#X connect 35 0 36 1;
#X connect 35 1 36 2;
#X connect 35 2 36 3;
#X connect 36 0 44 0;
#X connect 37 0 35 0;
#X connect 38 0 37 0;
#X connect 39 0 49 0;
#X connect 40 0 42 0;
#X connect 40 0 48 0;
#X connect 42 0 50 0;
#X connect 43 0 36 0;
#X connect 44 0 34 1;
#X connect 44 0 34 0;
#X connect 44 0 42 0;
#X connect 46 0 45 1;
#X connect 47 0 42 11;
#X connect 48 0 34 0;
#X connect 48 0 34 1;
#X connect 49 0 38 0;
#X connect 50 0 34 1;
#X connect 50 0 34 0;
