#N canvas 506 25 934 726 12;
#X obj 136 -266 vsl 19 162 0 1 0 0 empty empty empty 0 -9 0 12 #fcfcfc #000000 #000000 0 1;
#X obj 200 -266 vsl 19 162 0 1 0 0 empty empty empty 0 -9 0 12 #fcfcfc #000000 #000000 0 1;
#X obj 135 -39 vsl 19 162 0 1 0 0 empty empty empty 0 -9 0 12 #fcfcfc #000000 #000000 0 1;
#X obj 157 -39 vsl 19 162 0 1 0 0 empty empty empty 0 -9 0 12 #fcfcfc #000000 #000000 0 1;
#X obj 178 -39 vsl 19 162 0 1 0 0 empty empty empty 0 -9 0 12 #fcfcfc #000000 #000000 0 1;
#X obj 199 -39 vsl 19 162 0 1 0 0 empty empty empty 0 -9 0 12 #fcfcfc #000000 #000000 0 1;
#X obj 220 -39 vsl 19 162 0 1 0 0 empty empty empty 0 -9 0 12 #fcfcfc #000000 #000000 0 1;
#X obj 241 -39 vsl 19 162 0 1 0 0 empty empty empty 0 -9 0 12 #fcfcfc #000000 #000000 0 1;
#X obj 262 -39 vsl 19 162 0 1 0 0 empty empty empty 0 -9 0 12 #fcfcfc #000000 #000000 0 1;
#X obj 284 -39 vsl 19 162 0 1 0 0 empty empty empty 0 -9 0 12 #fcfcfc #000000 #000000 0 1;
#X obj 306 -39 vsl 19 162 0 1 0 0 empty empty empty 0 -9 0 12 #fcfcfc #000000 #000000 0 1;
#X obj 327 -39 vsl 19 162 0 1 0 0 empty empty empty 0 -9 0 12 #fcfcfc #000000 #000000 0 1;
#X obj 196 396 synthesis, f 46;
#X obj 582 504 timbretransferVAE;
#X obj 127 661 dac~;
#X obj 582 528 *~ 0.1;
#X obj 135 131 * 200;
#X obj 157 160 * 200;
#X obj 179 181 * 200;
#X obj 201 210 * 200;
#X obj 223 233 * 200;
#X obj 245 258 * 200;
#X obj 271 283 * 200;
#X obj 293 306 * 200;
#X obj 315 331 * 200;
#X obj 339 355 * 200;
#X obj 137 -76 mlp, f 26;
#X obj 58 -16 phasor~ 90;
#X obj 429 604 *~;
#X obj 485 -259 vsl 19 162 0 1 0 0 empty empty empty 0 -9 0 12 #fcfcfc #000000 #000000 0 1;
#X obj 549 -259 vsl 19 162 0 1 0 0 empty empty empty 0 -9 0 12 #fcfcfc #000000 #000000 0 1;
#X obj 484 -32 vsl 19 162 0 1 0 0 empty empty empty 0 -9 0 12 #fcfcfc #000000 #000000 0 1;
#X obj 506 -32 vsl 19 162 0 1 0 0 empty empty empty 0 -9 0 12 #fcfcfc #000000 #000000 0 1;
#X obj 527 -32 vsl 19 162 0 1 0 0 empty empty empty 0 -9 0 12 #fcfcfc #000000 #000000 0 1;
#X obj 548 -32 vsl 19 162 0 1 0 0 empty empty empty 0 -9 0 12 #fcfcfc #000000 #000000 0 1;
#X obj 569 -32 vsl 19 162 0 1 0 0 empty empty empty 0 -9 0 12 #fcfcfc #000000 #000000 0 1;
#X obj 590 -32 vsl 19 162 0 1 0 0 empty empty empty 0 -9 0 12 #fcfcfc #000000 #000000 0 1;
#X obj 611 -32 vsl 19 162 0 1 0 0 empty empty empty 0 -9 0 12 #fcfcfc #000000 #000000 0 1;
#X obj 633 -32 vsl 19 162 0 1 0 0 empty empty empty 0 -9 0 12 #fcfcfc #000000 #000000 0 1;
#X obj 655 -32 vsl 19 162 0 1 0 0 empty empty empty 0 -9 0 12 #fcfcfc #000000 #000000 0 1;
#X obj 676 -32 vsl 19 162 0 1 0 0 empty empty empty 0 -9 0 12 #fcfcfc #000000 #000000 0 1;
#X obj 484 138 * 200;
#X obj 506 167 * 200;
#X obj 528 188 * 200;
#X obj 550 217 * 200;
#X obj 572 240 * 200;
#X obj 594 265 * 200;
#X obj 620 290 * 200;
#X obj 642 313 * 200;
#X obj 664 338 * 200;
#X obj 688 362 * 200;
#X obj 377 147 phasor~ 180;
#X obj 486 -69 mlp, f 26;
#X obj 79 607 *~ 0.05;
#X connect 0 0 26 0;
#X connect 1 0 26 1;
#X connect 2 0 16 0;
#X connect 3 0 17 0;
#X connect 3 0 13 1;
#X connect 4 0 18 0;
#X connect 4 0 13 2;
#X connect 5 0 19 0;
#X connect 5 0 13 3;
#X connect 6 0 20 0;
#X connect 6 0 13 4;
#X connect 7 0 21 0;
#X connect 8 0 22 0;
#X connect 8 0 13 5;
#X connect 9 0 23 0;
#X connect 9 0 13 6;
#X connect 10 0 24 0;
#X connect 10 0 13 7;
#X connect 11 0 25 0;
#X connect 11 0 13 8;
#X connect 12 0 13 0;
#X connect 12 0 28 0;
#X connect 12 0 53 0;
#X connect 13 0 15 0;
#X connect 15 0 28 1;
#X connect 16 0 12 1;
#X connect 17 0 12 2;
#X connect 18 0 12 3;
#X connect 19 0 12 4;
#X connect 20 0 12 5;
#X connect 21 0 12 6;
#X connect 22 0 12 7;
#X connect 23 0 12 8;
#X connect 24 0 12 10;
#X connect 25 0 12 11;
#X connect 26 0 2 0;
#X connect 26 1 3 0;
#X connect 26 2 4 0;
#X connect 26 3 5 0;
#X connect 26 4 6 0;
#X connect 26 5 7 0;
#X connect 26 6 8 0;
#X connect 26 7 9 0;
#X connect 26 8 10 0;
#X connect 26 9 11 0;
#X connect 27 0 12 0;
#X connect 29 0 52 0;
#X connect 30 0 52 1;
#X connect 31 0 41 0;
#X connect 32 0 42 0;
#X connect 33 0 43 0;
#X connect 34 0 44 0;
#X connect 35 0 45 0;
#X connect 36 0 46 0;
#X connect 37 0 47 0;
#X connect 38 0 48 0;
#X connect 39 0 49 0;
#X connect 40 0 50 0;
#X connect 41 0 12 12;
#X connect 42 0 12 13;
#X connect 43 0 12 14;
#X connect 44 0 12 15;
#X connect 45 0 12 16;
#X connect 46 0 12 17;
#X connect 47 0 12 18;
#X connect 48 0 12 19;
#X connect 49 0 12 20;
#X connect 50 0 12 21;
#X connect 51 0 12 9;
#X connect 52 0 31 0;
#X connect 52 1 32 0;
#X connect 52 2 33 0;
#X connect 52 3 34 0;
#X connect 52 4 35 0;
#X connect 52 5 36 0;
#X connect 52 6 37 0;
#X connect 52 7 38 0;
#X connect 52 8 39 0;
#X connect 52 9 40 0;
