#N canvas 500 25 939 735 12;
#X msg 346 353 fit xydata paramsdata;
#X obj 237 254 tabwrite xybuf;
#X obj 192 205 pack f 0;
#X obj 256 205 pack f 1;
#X obj 237 275 array define xybuf 2;
#X obj 134 605 vsl 19 162 0 1 0 0 empty empty empty 0 -9 0 12 #fcfcfc #000000 #000000 0 1;
#X obj 156 605 vsl 19 162 0 1 0 0 empty empty empty 0 -9 0 12 #fcfcfc #000000 #000000 0 1;
#X obj 177 605 vsl 19 162 0 1 0 0 empty empty empty 0 -9 0 12 #fcfcfc #000000 #000000 0 1;
#X obj 198 605 vsl 19 162 0 1 0 0 empty empty empty 0 -9 0 12 #fcfcfc #000000 #000000 0 1;
#X obj 219 605 vsl 19 162 0 1 0 0 empty empty empty 0 -9 0 12 #fcfcfc #000000 #000000 0 1;
#X obj 484 804 tabwrite paramsbuf;
#X obj 240 605 vsl 19 162 0 1 0 0 empty empty empty 0 -9 0 12 #fcfcfc #000000 #000000 0 1;
#X obj 261 605 vsl 19 162 0 1 0 0 empty empty empty 0 -9 0 12 #fcfcfc #000000 #000000 0 1;
#X obj 283 605 vsl 19 162 0 1 0 0 empty empty empty 0 -9 0 12 #fcfcfc #000000 #000000 0 1;
#X obj 305 605 vsl 19 162 0 1 0 0 empty empty empty 0 -9 0 12 #fcfcfc #000000 #000000 0 1;
#X obj 326 605 vsl 19 162 0 1 0 0 empty empty empty 0 -9 0 12 #fcfcfc #000000 #000000 0 1;
#X obj 484 825 array define paramsbuf 10;
#N canvas 353 378 783 300 packslider 0;
#X obj 6 55 pack f 0;
#X obj 70 55 pack f 1;
#X obj 133 55 pack f 2;
#X obj 197 55 pack f 3;
#X obj 262 55 pack f 4;
#X obj 324 54 pack f 5;
#X obj 388 54 pack f 6;
#X obj 451 54 pack f 7;
#X obj 515 54 pack f 8;
#X obj 6 102 outlet;
#X obj 7 27 inlet;
#X obj 263 27 inlet;
#X obj 133 29 inlet;
#X obj 196 27 inlet;
#X obj 580 54 pack f 9;
#X obj 70 28 inlet;
#X obj 322 24 inlet;
#X obj 578 24 inlet;
#X obj 448 26 inlet;
#X obj 511 24 inlet;
#X obj 385 25 inlet;
#X connect 0 0 9 0;
#X connect 1 0 9 0;
#X connect 2 0 9 0;
#X connect 3 0 9 0;
#X connect 4 0 9 0;
#X connect 5 0 9 0;
#X connect 6 0 9 0;
#X connect 7 0 9 0;
#X connect 8 0 9 0;
#X connect 10 0 0 0;
#X connect 11 0 4 0;
#X connect 12 0 2 0;
#X connect 13 0 3 0;
#X connect 14 0 9 0;
#X connect 15 0 1 0;
#X connect 16 0 5 0;
#X connect 17 0 14 0;
#X connect 18 0 7 0;
#X connect 19 0 8 0;
#X connect 20 0 6 0;
#X restore 484 781 pd packslider;
#X f 18;
#X msg 467 246 addpoint \$1 xybuf;
#X msg 620 246 addpoint \$1 paramsbuf;
#X obj 467 270 fluid.dataset xydata;
#X obj 466 206 f, f 7;
#X obj 466 182 bng 19 250 50 0 empty empty empty 0 -10 0 12 #fcfcfc #000000 #000000;
#X msg 795 246 print;
#X msg 845 246 clear;
#X obj 134 185 vradio 19 1 0 2 empty empty empty 0 -10 0 12 #fcfcfc #000000 #000000 0;
#X obj 133 520 array get paramsbuf;
#X obj 133 544 unpack f f f f f f f f f f, f 28;
#X text 16 184 selecting points;
#X text 9 203 predicting points;
#X obj 620 270 fluid.dataset paramsdata;
#X msg 133 353 predictpoint xybuf paramsbuf;
#X obj 133 472 t b;
#X obj 133 444 route predictpoint fit;
#X msg 596 528 \; pd dsp \$1;
#X obj 596 501 tgl 19 0 empty empty empty 0 -10 0 12 #fcfcfc #000000 #000000 0 1;
#X obj 619 504 cnv 15 15 15 empty empty empty 20 12 0 14 #c6ffc7 #404040 0;
#X text 619 502 1) turn audio on;
#X obj 283 36 cnv 15 15 15 empty empty empty 20 12 0 14 #c6ffc7 #404040 0;
#X text 283 34 2) set a point on both sliders;
#X obj 354 670 cnv 15 15 15 empty empty empty 20 12 0 14 #c6ffc7 #404040 0;
#X text 354 668 3) adjust the parameters for the chaotic synth, f 24;
#X obj 498 167 cnv 15 15 15 empty empty empty 20 12 0 14 #c6ffc7 #404040 0;
#X obj 505 355 cnv 15 15 15 empty empty empty 20 12 0 14 #c6ffc7 #404040 0;
#X obj 19 153 cnv 15 15 15 empty empty empty 20 12 0 14 #c6ffc7 #404040 0;
#X text 19 151 6) switch to predicting points, f 18;
#X obj 283 95 cnv 15 15 15 empty empty empty 20 12 0 14 #c6ffc7 #404040 0;
#X text 283 93 7) play around with the slider positions to morph between synth presets, f 22;
#X obj 598 41 cnv 19 150 30 empty empty Regressor 19 15 0 20 #00faff #ffffff 0;
#X obj 535 206 + 1;
#X text 498 165 4) click to add the settings to the datasets. repeat steps 2 to 4 to add more data to the datasets, f 52;
#X text 505 353 5) click to teach mlpregressor \, repeat to get as close to zero error as possible (the fit is shown in the console window), f 39;
#X obj 208 472 list;
#X listbox 208 496 20 0 0 0 - - - 0;
#X text 355 495 error;
#X obj 134 296 spigot;
#X obj 192 229 t b l;
#X obj 135 834 outlet;
#X obj 152 810 outlet;
#X obj 190 838 outlet;
#X obj 207 814 outlet;
#X obj 246 838 outlet;
#X obj 263 814 outlet;
#X obj 301 842 outlet;
#X obj 318 818 outlet;
#X obj 357 844 outlet;
#X obj 374 820 outlet;
#X obj 496 874 bng 15 250 50 0 empty empty empty 17 7 0 10 #fcfcfc #000000 #000000;
#X obj 496 899 fluid.ds2text paramsdata paramsdata.text;
#X obj 185 5 inlet;
#X obj 243 5 inlet;
#X obj 496 941 text define paramsdata.txt;
#X obj 133 378 fluid.mlpregressor mlp -hiddenlayers 5 -activation 1 -outputactivation 1 -batchsize 1 -maxiter 10000 -learnrate 0.1 -validation 0, f 42;
#X msg 9 322 read ./test4.json;
#X obj 61 69 loadbang;
#X msg 61 93 1;
#X msg -6 370 write ./test7.json;
#X obj 377 264 tgl 19 0 empty empty empty 0 -10 0 12 #fcfcfc #000000 #000000 0 1;
#X obj 390 306 metro 80;
#X connect 0 0 72 0;
#X connect 2 0 56 0;
#X connect 3 0 56 0;
#X connect 5 0 17 0;
#X connect 5 0 57 0;
#X connect 6 0 17 1;
#X connect 6 0 58 0;
#X connect 7 0 17 2;
#X connect 7 0 59 0;
#X connect 8 0 17 3;
#X connect 8 0 60 0;
#X connect 9 0 17 4;
#X connect 9 0 61 0;
#X connect 11 0 17 5;
#X connect 11 0 62 0;
#X connect 12 0 17 6;
#X connect 12 0 63 0;
#X connect 13 0 17 7;
#X connect 13 0 64 0;
#X connect 14 0 17 8;
#X connect 14 0 65 0;
#X connect 15 0 17 9;
#X connect 15 0 66 0;
#X connect 17 0 10 0;
#X connect 18 0 20 0;
#X connect 19 0 30 0;
#X connect 21 0 18 0;
#X connect 21 0 19 0;
#X connect 21 0 49 0;
#X connect 22 0 21 0;
#X connect 23 0 20 0;
#X connect 23 0 30 0;
#X connect 24 0 20 0;
#X connect 24 0 30 0;
#X connect 25 0 55 1;
#X connect 26 0 27 0;
#X connect 27 0 5 0;
#X connect 27 1 6 0;
#X connect 27 2 7 0;
#X connect 27 3 8 0;
#X connect 27 4 9 0;
#X connect 27 5 11 0;
#X connect 27 6 12 0;
#X connect 27 7 13 0;
#X connect 27 8 14 0;
#X connect 27 9 15 0;
#X connect 31 0 72 0;
#X connect 32 0 26 0;
#X connect 33 0 32 0;
#X connect 33 1 52 0;
#X connect 35 0 34 0;
#X connect 49 0 21 1;
#X connect 52 0 53 0;
#X connect 55 0 31 0;
#X connect 56 0 55 0;
#X connect 56 1 1 0;
#X connect 67 0 68 0;
#X connect 69 0 2 0;
#X connect 70 0 3 0;
#X connect 72 0 33 0;
#X connect 73 0 72 0;
#X connect 74 0 75 0;
#X connect 74 0 73 0;
#X connect 75 0 25 0;
#X connect 76 0 72 0;
#X connect 77 0 78 0;
#X connect 78 0 0 0;
