#N canvas 6 25 1289 743 12;
#N canvas 388 85 584 512 formant 0;
#X obj 198 211 bng 15 250 50 0 empty empty empty 17 7 0 10 #fcfcfc #000000 #000000;
#X msg 198 231 66 172 241;
#X obj -20 215 bng 15 250 50 0 empty empty empty 17 7 0 10 #fcfcfc #000000 #000000;
#X text -31 215 u;
#X obj 55 212 bng 15 250 50 0 empty empty empty 17 7 0 10 #fcfcfc #000000 #000000;
#X text 45 213 o;
#X msg 55 231 57 84 241;
#X obj 123 211 bng 15 250 50 0 empty empty empty 17 7 0 10 #fcfcfc #000000 #000000;
#X msg 123 231 73 109 244;
#X msg 271 231 27 229 301;
#X text 261 212 i;
#X msg -21 232 10 14 200;
#X obj -20 146 sel 1 2 3 4 5;
#X text 187 210 e;
#X text 112 210 a;
#X obj 273 213 bng 15 250 50 0 empty empty empty 17 7 0 10 #fcfcfc #000000 #000000;
#X obj 108 111 bng 19 250 50 0 empty empty empty 0 -10 0 12 #fcfcfc #000000 #000000;
#X obj 130 111 bng 19 250 50 0 empty empty empty 0 -10 0 12 #fcfcfc #000000 #000000;
#X obj 152 111 bng 19 250 50 0 empty empty empty 0 -10 0 12 #fcfcfc #000000 #000000;
#X obj 174 111 bng 19 250 50 0 empty empty empty 0 -10 0 12 #fcfcfc #000000 #000000;
#X obj 196 111 bng 19 250 50 0 empty empty empty 0 -10 0 12 #fcfcfc #000000 #000000;
#X obj -20 287 unpack f f f;
#X obj -20 376 outlet;
#X obj 19 399 outlet;
#X obj 60 424 outlet;
#X obj -20 328 +;
#X floatatom 107 137 5 0 0 0 - - - 0;
#X obj 25 324 t b f;
#X obj 8 349 +;
#X floatatom 108 157 5 0 0 0 - - - 0;
#X obj 41 348 t b f;
#X obj 56 376 +;
#X obj 89 375 t b f;
#X floatatom 178 135 5 0 0 0 - - - 0;
#X obj 287 77 *~ 0.5;
#X obj 287 101 *~ 100;
#X obj 287 125 snapshot~;
#X obj 367 92 metro 50;
#X floatatom 287 149 5 0 0 0 - - - 0;
#X obj 287 53 +~ 1;
#X obj 287 29 osc~ 0.01;
#X obj 177 166 tgl 19 0 empty empty empty 0 -10 0 12 #fcfcfc #000000 #000000 0 1;
#X msg 279 274 0;
#X msg 368 17 0.5;
#X obj -17 112 inlet;
#X connect 0 0 1 0;
#X connect 0 0 42 0;
#X connect 1 0 21 0;
#X connect 2 0 11 0;
#X connect 2 0 42 0;
#X connect 4 0 6 0;
#X connect 4 0 42 0;
#X connect 6 0 21 0;
#X connect 7 0 8 0;
#X connect 7 0 42 0;
#X connect 8 0 21 0;
#X connect 9 0 21 0;
#X connect 11 0 21 0;
#X connect 12 0 2 0;
#X connect 12 1 4 0;
#X connect 12 2 7 0;
#X connect 12 3 0 0;
#X connect 12 4 15 0;
#X connect 15 0 9 0;
#X connect 15 0 42 0;
#X connect 16 0 2 0;
#X connect 17 0 4 0;
#X connect 18 0 7 0;
#X connect 19 0 0 0;
#X connect 20 0 15 0;
#X connect 21 0 25 0;
#X connect 21 1 28 0;
#X connect 21 2 31 0;
#X connect 25 0 22 0;
#X connect 26 0 27 0;
#X connect 27 0 25 0;
#X connect 27 1 25 1;
#X connect 28 0 23 0;
#X connect 29 0 30 0;
#X connect 30 0 28 0;
#X connect 30 1 28 1;
#X connect 31 0 24 0;
#X connect 32 0 31 0;
#X connect 32 1 31 1;
#X connect 33 0 32 0;
#X connect 34 0 35 0;
#X connect 35 0 36 0;
#X connect 36 0 38 0;
#X connect 37 0 36 0;
#X connect 38 0 26 0;
#X connect 38 0 33 0;
#X connect 38 0 29 0;
#X connect 39 0 34 0;
#X connect 40 0 39 0;
#X connect 41 0 37 0;
#X connect 41 0 43 0;
#X connect 42 0 33 0;
#X connect 42 0 29 0;
#X connect 42 0 26 0;
#X connect 43 0 40 1;
#X connect 44 0 12 0;
#X coords 0 -1 1 1 120 90 1 100 100;
#X restore 162 184 pd formant control;
#X obj 54 323 synthesis_voce~, f 16;
#X obj 169 126 + 1;
#X obj 169 102 urn 5;
#X obj 169 78 metro 100;
#X obj 169 46 tgl 19 0 empty empty empty 0 -10 0 12 #fcfcfc #000000 #000000 0 1;
#X obj 420 289 inlet;
#X obj 466 289 inlet;
#X obj 511 289 inlet;
#X obj 557 289 inlet;
#X obj 601 288 inlet;
#X obj 647 288 inlet;
#X obj 692 287 inlet;
#X obj 734 287 inlet;
#X obj 13 232 inlet~;
#X obj 77 678 outlet~, f 33;
#X connect 0 0 1 1;
#X connect 0 1 1 2;
#X connect 0 2 1 3;
#X connect 1 0 15 0;
#X connect 2 0 0 0;
#X connect 3 0 2 0;
#X connect 4 0 3 0;
#X connect 5 0 4 0;
#X connect 6 0 1 4;
#X connect 7 0 1 5;
#X connect 8 0 1 6;
#X connect 9 0 1 7;
#X connect 10 0 1 8;
#X connect 11 0 1 9;
#X connect 12 0 1 10;
#X connect 13 0 1 11;
#X connect 14 0 1 0;
