#N canvas 124 202 1182 673 12;
#X obj 20 -32 inlet~;
#X obj 763 358 tgl 19 0 empty \$0-enable empty 0 -10 0 12 #fcfcfc #000000 #000000 0 1;
#X msg 763 382 enable \$1;
#X obj 763 406 s \$0-nn;
#X obj 22 301 clip~ -0.9 0.9;
#X obj 39 35 r \$0-nn;
#X obj 22 365 outlet~;
#X obj 763 319 loadbang;
#X obj 22 276 nn~ ../../dataset/organ.ts decode;
#X obj 20 60 nn~ ../../dataset/organ.ts encode 2048;
#X obj 670 218 inlet;
#X obj 418 28 inlet;
#X obj 483 30 inlet;
#X obj 543 32 inlet;
#X obj 597 32 inlet;
#X obj 647 34 inlet;
#X obj 701 34 inlet;
#X obj 763 40 inlet;
#X obj 828 42 inlet;
#X obj 888 44 inlet;
#X obj 942 44 inlet;
#X obj 27 165 *~;
#X obj 372 177 *~;
#X obj 256 171 *~;
#X obj 92 167 *~;
#X obj 152 169 *~;
#X obj 206 169 *~;
#X obj 310 171 *~;
#X obj 437 179 *~;
#X obj 497 181 *~;
#X obj 551 181 *~;
#X connect 0 0 9 0;
#X connect 1 0 2 0;
#X connect 2 0 3 0;
#X connect 4 0 6 0;
#X connect 5 0 9 0;
#X connect 7 0 1 0;
#X connect 8 0 4 0;
#X connect 9 0 21 0;
#X connect 9 1 24 0;
#X connect 9 2 25 0;
#X connect 9 3 26 0;
#X connect 9 4 23 0;
#X connect 9 5 27 0;
#X connect 9 6 22 0;
#X connect 9 7 28 0;
#X connect 9 8 29 0;
#X connect 9 9 30 0;
#X connect 9 10 8 10;
#X connect 9 11 8 11;
#X connect 9 12 8 12;
#X connect 9 13 8 13;
#X connect 9 14 8 14;
#X connect 9 15 8 15;
#X connect 10 0 1 0;
#X connect 11 0 21 1;
#X connect 12 0 24 1;
#X connect 13 0 25 1;
#X connect 14 0 26 1;
#X connect 15 0 23 1;
#X connect 16 0 27 1;
#X connect 17 0 22 1;
#X connect 18 0 28 1;
#X connect 19 0 29 1;
#X connect 20 0 30 1;
#X connect 21 0 8 0;
#X connect 22 0 8 6;
#X connect 23 0 8 4;
#X connect 24 0 8 1;
#X connect 25 0 8 2;
#X connect 26 0 8 3;
#X connect 27 0 8 5;
#X connect 28 0 8 7;
#X connect 29 0 8 8;
#X connect 30 0 8 9;
