#N canvas 438 25 974 534 12;
#X obj 20 -32 inlet~;
#X obj 763 358 tgl 19 0 empty \$0-enable empty 0 -10 0 12 #fcfcfc #000000 #000000 0 1;
#X msg 763 382 enable \$1;
#X obj 763 406 s \$0-nn;
#X obj 22 301 clip~ -0.9 0.9;
#X obj 329 299 clip~ -0.9 0.9;
#X obj 329 326 *~ 0.5;
#X obj 329 369 outlet~;
#X obj 20 60 nn~ ../../dataset/birds.ts encode 16384;
#X obj 22 276 nn~ ../../dataset/birds.ts decode;
#X obj 39 35 r \$0-nn;
#X obj 328 34 r \$0-nn;
#X obj 328 59 nn~ ../../dataset/organ.ts encode 16384;
#X obj 329 272 nn~ ../../dataset/organ.ts decode;
#X obj 22 365 outlet~;
#X obj 763 319 loadbang;
#X obj 649 31 inlet;
#X obj 693 32 inlet;
#X obj 737 33 inlet;
#X obj 781 33 inlet;
#X obj 823 33 inlet;
#X obj 868 32 inlet;
#X obj 606 31 inlet;
#X obj 596 132 +~;
#X obj 641 133 +~;
#X obj 677 131 +~;
#X obj 722 132 +~;
#X obj 754 135 +~;
#X obj 799 136 +~;
#X obj 835 134 +~;
#X connect 0 0 8 0;
#X connect 0 0 12 0;
#X connect 1 0 2 0;
#X connect 2 0 3 0;
#X connect 4 0 14 0;
#X connect 5 0 6 0;
#X connect 6 0 7 0;
#X connect 8 0 9 0;
#X connect 8 1 9 1;
#X connect 8 2 9 2;
#X connect 8 3 9 3;
#X connect 8 4 9 4;
#X connect 8 5 9 5;
#X connect 8 6 9 6;
#X connect 8 7 9 7;
#X connect 8 8 9 8;
#X connect 8 9 9 9;
#X connect 8 10 9 10;
#X connect 8 11 9 11;
#X connect 9 0 4 0;
#X connect 10 0 8 0;
#X connect 11 0 12 0;
#X connect 12 0 13 0;
#X connect 12 1 13 1;
#X connect 12 2 13 2;
#X connect 12 3 13 3;
#X connect 12 4 13 4;
#X connect 12 5 13 5;
#X connect 12 6 13 6;
#X connect 12 7 13 7;
#X connect 12 7 23 0;
#X connect 12 8 13 8;
#X connect 12 9 13 9;
#X connect 12 9 24 0;
#X connect 12 10 13 10;
#X connect 12 11 13 11;
#X connect 12 11 25 0;
#X connect 12 12 13 12;
#X connect 12 12 26 0;
#X connect 12 13 13 13;
#X connect 12 13 27 0;
#X connect 12 14 13 14;
#X connect 12 14 28 0;
#X connect 12 15 13 15;
#X connect 12 15 29 0;
#X connect 13 0 5 0;
#X connect 15 0 1 0;
#X connect 16 0 24 1;
#X connect 17 0 25 1;
#X connect 18 0 26 1;
#X connect 19 0 27 1;
#X connect 20 0 28 1;
#X connect 21 0 29 1;
#X connect 22 0 23 1;
#X connect 23 0 13 5;
#X connect 24 0 13 6;
#X connect 25 0 13 7;
#X connect 26 0 13 8;
#X connect 27 0 13 9;
#X connect 28 0 13 10;
#X connect 29 0 13 11;
