#N canvas 330 59 892 734 12;
#X obj 352 194 paf~;
#X obj 604 197 paf~;
#X obj 841 195 paf~;
#X obj 423 12 inlet;
#X obj 709 15 inlet;
#X obj 351 32 inlet~;
#X text 465 59 formant center frequencies;
#X text 671 57 common bandwith;
#X text 120 4 3-formants voice;
#X text 285 204 formant 1;
#X text 537 206 formant 2;
#X text 774 205 formant 3;
#X text 243 56 phasor fundamental frequency;
#X obj 573 567 outlet~;
#N canvas 171 45 450 300 clipper 0;
#X obj 146 30 inlet;
#X obj 115 183 clip~ -0.1 0.1;
#X obj 115 159 *~;
#X obj 145 159 line~;
#X obj 147 135 pack f 0.1;
#X obj 146 113 / 10;
#X obj 114 85 inlet~;
#X obj 115 231 outlet~;
#X obj 115 207 *~ 0.2;
#X connect 0 0 5 0;
#X connect 1 0 8 0;
#X connect 2 0 1 0;
#X connect 3 0 2 1;
#X connect 4 0 3 0;
#X connect 5 0 4 0;
#X connect 6 0 2 0;
#X connect 8 0 7 0;
#X restore 775 493 pd clipper;
#X floatatom 842 470 5 0 0 0 - - - 0;
#X obj 555 450 +~;
#X obj 352 397 *~;
#X obj 370 374 line~;
#X obj 370 352 pack f 50;
#X obj 370 329 / 100;
#X floatatom 370 308 5 0 0 0 - - - 0;
#X obj 604 394 *~;
#X obj 622 371 line~;
#X obj 622 349 pack f 50;
#X obj 622 326 / 100;
#X floatatom 622 305 5 0 0 0 - - - 0;
#X obj 841 393 *~;
#X obj 859 370 line~;
#X obj 859 348 pack f 50;
#X obj 859 325 / 100;
#X floatatom 859 304 5 0 0 0 - - - 0;
#X obj 573 539 *~;
#X obj 591 516 line~;
#X obj 591 494 pack f 50;
#X obj 591 471 / 100;
#X floatatom 591 450 5 0 0 0 - - - 0;
#X obj 787 608 *~;
#X obj 805 585 line~;
#X obj 805 563 pack f 50;
#X obj 805 540 / 100;
#X floatatom 805 519 5 0 0 0 - - - 0;
#X obj 787 632 outlet~;
#X obj 113 131 hsl 162 19 0 127 0 0 empty empty empty -2 -10 0 12 #fcfcfc #000000 #000000 0 1;
#X obj 113 154 hsl 162 19 0 127 0 0 empty empty empty -2 -10 0 12 #fcfcfc #000000 #000000 0 1;
#X obj 113 177 hsl 162 19 0 127 0 0 empty empty empty -2 -10 0 12 #fcfcfc #000000 #000000 0 1;
#X obj 111 210 vsl 19 60 0 127 0 0 empty empty empty 0 -9 0 12 #fcfcfc #000000 #000000 0 1;
#X obj 176 221 hsl 100 19 0 300 0 0 empty empty empty -2 -10 0 12 #fcfcfc #000000 #000000 0 1;
#X obj 749 38 + 0;
#X obj 709 39 + 0;
#X obj 178 246 hsl 100 19 0 127 0 0 empty empty empty -2 -10 0 12 #fcfcfc #000000 #000000 0 1;
#X obj 541 5 inlet;
#X obj 632 10 inlet;
#X obj 841 417 *~ 0.2;
#X connect 0 0 17 0;
#X connect 0 0 14 0;
#X connect 1 0 22 0;
#X connect 2 0 27 0;
#X connect 3 0 0 1;
#X connect 4 0 0 2;
#X connect 4 0 48 0;
#X connect 4 0 49 0;
#X connect 5 0 0 0;
#X connect 5 0 1 0;
#X connect 5 0 2 0;
#X connect 14 0 37 0;
#X connect 15 0 14 1;
#X connect 16 0 32 0;
#X connect 17 0 16 0;
#X connect 18 0 17 1;
#X connect 19 0 18 0;
#X connect 20 0 19 0;
#X connect 21 0 20 0;
#X connect 22 0 16 1;
#X connect 23 0 22 1;
#X connect 24 0 23 0;
#X connect 25 0 24 0;
#X connect 26 0 25 0;
#X connect 27 0 53 0;
#X connect 28 0 27 1;
#X connect 29 0 28 0;
#X connect 30 0 29 0;
#X connect 31 0 30 0;
#X connect 32 0 13 0;
#X connect 33 0 32 1;
#X connect 34 0 33 0;
#X connect 35 0 34 0;
#X connect 36 0 35 0;
#X connect 37 0 42 0;
#X connect 38 0 37 1;
#X connect 39 0 38 0;
#X connect 40 0 39 0;
#X connect 41 0 40 0;
#X connect 43 0 21 0;
#X connect 44 0 26 0;
#X connect 45 0 31 0;
#X connect 46 0 36 0;
#X connect 47 0 15 0;
#X connect 48 0 2 2;
#X connect 49 0 1 2;
#X connect 50 0 41 0;
#X connect 51 0 1 1;
#X connect 52 0 2 1;
#X connect 53 0 16 1;
#X coords 0 -1 1 1 190 180 1 100 100;
